<svg width="124" height="40" viewBox="0 0 124 40" fill="none" xmlns="http://www.w3.org/2000/svg">
<rect x="68" width="56" height="40" rx="20" fill="#4F77FF"/>
<path d="M85.8593 20.8594L104.059 20.8594L101.044 23.8596C100.708 24.1944 100.707 24.7386 101.041 25.075C101.376 25.4114 101.92 25.4126 102.257 25.0779L106.747 20.6091C106.747 20.6089 106.748 20.6086 106.748 20.6083C107.083 20.2735 107.085 19.7276 106.748 19.3917C106.748 19.3914 106.747 19.3911 106.747 19.3909L102.257 14.9221C101.92 14.5874 101.376 14.5886 101.041 14.9251C100.707 15.2615 100.708 15.8056 101.044 16.1404L104.059 19.1406L85.8593 19.1406C85.3847 19.1406 85 19.5254 85 20C85 20.4746 85.3847 20.8594 85.8593 20.8594Z" fill="white"/>
<rect x="55.5" y="39.5" width="55" height="39" rx="19.5" transform="rotate(-180 55.5 39.5)" stroke="#E7E5EA"/>
<path d="M38.1407 19.1406L19.9409 19.1406L22.9557 16.1404C23.2921 15.8056 23.2934 15.2614 22.9586 14.925C22.6238 14.5886 22.0797 14.5874 21.7433 14.9221L17.2528 19.3909C17.2525 19.3911 17.2523 19.3914 17.2521 19.3917C16.9165 19.7265 16.9155 20.2724 17.252 20.6083C17.2523 20.6086 17.2525 20.6089 17.2528 20.6091L21.7432 25.0779C22.0795 25.4126 22.6237 25.4114 22.9585 25.0749C23.2934 24.7385 23.2921 24.1944 22.9557 23.8596L19.9409 20.8594L38.1407 20.8594C38.6153 20.8594 39 20.4746 39 20C39 19.5254 38.6153 19.1406 38.1407 19.1406Z" fill="#2D3958"/>
</svg>
