<svg width="56" height="42" viewBox="0 0 56 42" fill="none" xmlns="http://www.w3.org/2000/svg">
<path d="M17.8593 21.513L36.0591 21.513L33.0443 24.5668C32.7079 24.9076 32.7066 25.4614 33.0414 25.8038C33.3762 26.1463 33.9203 26.1476 34.2567 25.8068L38.7472 21.2583C38.7475 21.258 38.7477 21.2577 38.7479 21.2574C39.0835 20.9166 39.0845 20.361 38.748 20.0191C38.7477 20.0188 38.7475 20.0185 38.7472 20.0183L34.2568 15.4697C33.9205 15.129 33.3763 15.1302 33.0415 15.4727C32.7066 15.8151 32.7079 16.3689 33.0443 16.7097L36.0591 19.7635L17.8593 19.7635C17.3847 19.7635 17 20.1552 17 20.6383C17 21.1214 17.3847 21.513 17.8593 21.513Z" fill="#2D3958"/>
<rect x="0.5" y="0.714844" width="55" height="39.8465" rx="19.5" stroke="#E7E5EA"/>
</svg>
