<svg width="56" height="40" viewBox="0 0 56 40" fill="none" xmlns="http://www.w3.org/2000/svg">
<rect width="56" height="40" rx="20" fill="#4F77FF"/>
<path d="M17.8593 20.8594L36.0591 20.8594L33.0443 23.8596C32.7079 24.1944 32.7066 24.7386 33.0414 25.075C33.3762 25.4114 33.9203 25.4126 34.2567 25.0779L38.7472 20.6091C38.7475 20.6089 38.7477 20.6086 38.7479 20.6083C39.0835 20.2735 39.0845 19.7276 38.748 19.3917C38.7477 19.3914 38.7475 19.3911 38.7472 19.3909L34.2568 14.9221C33.9205 14.5874 33.3763 14.5886 33.0415 14.9251C32.7066 15.2615 32.7079 15.8056 33.0443 16.1404L36.0591 19.1406L17.8593 19.1406C17.3847 19.1406 17 19.5254 17 20C17 20.4746 17.3847 20.8594 17.8593 20.8594Z" fill="white"/>
</svg>
